<?xml version="1.0" encoding="iso-8859-1"?>
<!-- Generator: Adobe Illustrator 19.0.0, SVG Export Plug-In . SVG Version: 6.00 Build 0)  -->
<svg xmlns="http://www.w3.org/2000/svg" xmlns:xlink="http://www.w3.org/1999/xlink" version="1.1" id="Layer_1" x="0px" y="0px" viewBox="0 0 511.97 511.97" style="enable-background:new 0 0 511.97 511.97;" xml:space="preserve" width="512px" height="512px">
<g>
	<g>
		<path d="M401.715,97.791c-4.156-22.421-20.155-28.312-37.248-28.312c-18.843,0-39.028,7.156-46.122,7.156    c-13.53,0,38.842-50.481-26.811-69.527C274.254,2.093,260.973,0,250.568,0c-41.935,0-37.529,33.936-63.746,47.013    c-5.812,2.891-11.562,4-17.124,4c-18.312,0-34.998-11.922-46.747-11.922c-4.906,0-8.937,2.062-11.875,7.922    c-5.5,10.858,7.125,56.059,22.717,102.509c-1.531-0.125-2.906-0.203-4.125-0.203v341.309c0,11.779,9.562,21.342,21.342,21.342    h213.299c11.78,0,21.343-9.562,21.343-21.342V152.24C397.09,130.82,404.183,111.118,401.715,97.791z M323.658,144.694    l18.529-4.953c0,0,0,0,0,0.016l4.594,17.265c-8.749,2.438-18.436,5.359-28.686,8.624L323.658,144.694z M149.732,129.772    c-11.937-36.873-16.312-56.419-17.842-66.449c0.623,0.235,1.217,0.47,1.81,0.688c9.75,3.703,21.905,8.327,35.998,8.327    c9.375,0,18.312-2.094,26.623-6.249c15.375-7.656,23.249-19.452,29.593-28.952c3.468-5.171,6.437-9.64,9.843-12.171    c2.094-1.562,5.906-3.641,14.812-3.641c8.906,0,20.717,2.109,35.029,6.266c11.281,3.281,16.687,7.312,17.968,9.999    c2.031,4.188-1.906,13.75-4.28,19.468c-1.25,3.031-2.406,5.891-3.281,8.781c-0.969,3.39-1.344,6.437-1.281,9.155L256.539,64.87    c-1.812-0.484-3.656-0.719-5.469-0.719c-9.437,0.016-18.062,6.327-20.593,15.874l-9.124,34.389    c-8.656-5.25-18.187-7.766-27.623-7.766C176.668,106.648,159.982,114.836,149.732,129.772z M312.939,101.898l-18.998,71.684    c-11.875,4-24.093,8.28-36.279,12.624c-10.218-3.64-20.436-7.217-30.467-10.655l23.873-90.058L312.939,101.898z M215.477,136.569    l-8.53,32.201c-16.531-5.405-31.936-10.093-44.935-13.515c0.625-4.234,2.124-8.343,4.437-12.108    c5.875-9.5,16.062-15.155,27.28-15.155c5.905,0,11.687,1.656,16.78,4.78C212.289,133.897,213.946,135.163,215.477,136.569z     M364.311,490.627H151.012V174.473c18.968,4.703,53.403,15.03,115.275,37.514c40.372,14.687,78.557,29.514,98.024,37.169V490.627z     M364.311,226.237c-17.843-6.97-45.122-17.484-75.026-28.531c37.373-12.874,60.652-19.67,75.026-23.232V226.237z M365.561,144.553    l-2.749-10.312c-2.562-9.53-11.188-15.827-20.625-15.827c-1.812,0-3.655,0.234-5.499,0.719l-6.718,1.797l3.593-13.577    c1.062-3.969,0.906-7.968-0.219-11.624c0.875-0.188,1.75-0.391,2.688-0.594c8.53-1.922,19.124-4.313,28.435-4.313    c5.344,0,9.593,0.828,11.937,2.359c0.875,0.547,3.125,2,4.344,8.483C381.029,103.18,382.154,114.117,365.561,144.553z" fill="#61d4d4"/>
	</g>
</g>
<g>
	<g>
		<path d="M222.539,259.093c-4.156-4.156-10.905-4.156-15.093,0c-2.062,2.094-3.125,4.812-3.125,7.547V437.3    c0,2.734,1.062,5.453,3.125,7.547c4.188,4.156,10.937,4.156,15.093,0c2.094-2.094,3.125-4.812,3.125-7.547V266.64    C225.664,263.906,224.633,261.187,222.539,259.093z" fill="#61d4d4"/>
	</g>
</g>
<g>
	<g>
		<path d="M297.191,259.093c-4.156-4.156-10.906-4.156-15.062,0c-2.094,2.094-3.125,4.812-3.125,7.547V437.3    c0,2.735,1.031,5.454,3.125,7.547c4.156,4.156,10.906,4.156,15.062,0c2.094-2.094,3.124-4.812,3.124-7.547V266.64    C300.315,263.906,299.285,261.187,297.191,259.093z" fill="#61d4d4"/>
	</g>
</g>
<g>
</g>
<g>
</g>
<g>
</g>
<g>
</g>
<g>
</g>
<g>
</g>
<g>
</g>
<g>
</g>
<g>
</g>
<g>
</g>
<g>
</g>
<g>
</g>
<g>
</g>
<g>
</g>
<g>
</g>
</svg>
