<?xml version="1.0" encoding="iso-8859-1"?>
<!-- Generator: Adobe Illustrator 19.0.0, SVG Export Plug-In . SVG Version: 6.00 Build 0)  -->
<svg xmlns="http://www.w3.org/2000/svg" xmlns:xlink="http://www.w3.org/1999/xlink" version="1.1" id="Layer_1" x="0px" y="0px" viewBox="0 0 512 512" style="enable-background:new 0 0 512 512;" xml:space="preserve" width="512px" height="512px">
<g>
	<g>
		<g>
			<path d="M401.067,0H110.933c-4.71,0-8.533,3.814-8.533,8.533v238.933V486.4c0,4.719,3.823,8.533,8.533,8.533h8.536v8.533     c0,4.719,3.823,8.533,8.533,8.533s8.533-3.814,8.533-8.533v-8.533h25.597h204.8h8.536v8.533c0,4.719,3.823,8.533,8.533,8.533     s8.533-3.814,8.533-8.533v-8.533h8.531c4.719,0,8.533-3.814,8.533-8.533V247.467V8.533C409.6,3.814,405.786,0,401.067,0z      M119.467,17.067h273.067v221.867H345.28c2.914-5.024,4.592-10.851,4.592-17.067c0-6.305-1.725-12.212-4.718-17.285     c17.027-1.904,30.318-16.381,30.318-33.915s-13.291-32.011-30.318-33.915c2.993-5.073,4.718-10.98,4.718-17.285     c0-18.825-15.317-34.133-34.133-34.133H145.073c-3.149,0-6.042,1.732-7.526,4.506c-1.485,2.782-1.323,6.144,0.427,8.764     c8.448,12.672,8.448,29.056,0,41.728c-1.749,2.62-1.911,5.982-0.427,8.764c1.485,2.773,4.378,4.506,7.526,4.506h20.697     c5.486,10.736,5.486,23.397,0,34.133h-20.697c-3.149,0-6.042,1.732-7.526,4.506c-1.485,2.782-1.323,6.144,0.427,8.764     c7.628,11.442,8.344,25.901,2.197,37.931h-20.703V17.067z M158.641,204.8h12.032h145.067c9.412,0,17.067,7.654,17.067,17.067     c0,9.412-7.654,17.067-17.067,17.067H158.641C162.301,227.849,162.301,215.885,158.641,204.8z M158.641,136.533     c3.661-11.085,3.661-23.049,0-34.133h157.099c9.412,0,17.067,7.654,17.067,17.067s-7.654,17.067-17.067,17.067H170.673H158.641z      M184.241,153.6h131.499h25.6c9.412,0,17.067,7.654,17.067,17.067c0,9.412-7.654,17.067-17.067,17.067h-25.6H184.241     C187.901,176.649,187.901,164.685,184.241,153.6z M119.467,256h25.606h170.667h76.794v221.867h-17.067v-59.733     c0-4.719-3.814-8.533-8.533-8.533H358.4v-51.2h8.533c4.719,0,8.533-3.814,8.533-8.533V281.6c0-4.719-3.814-8.533-8.533-8.533     h-204.8c-4.71,0-8.533,3.814-8.533,8.533v59.733h-8.533c-4.71,0-8.533,3.814-8.533,8.533v68.267c0,4.719,3.823,8.533,8.533,8.533     h8.533v51.2h-34.133V256z M153.6,409.6v-51.2h8.533h179.2v51.2h-179.2H153.6z M349.867,341.333h-179.2v-51.2H358.4v51.2H349.867z      M170.667,477.867v-51.2h179.2h8.533v51.2H170.667z" fill="#61d4d4"/>
			<path d="M179.203,375.467c-4.71,0-8.533,3.814-8.533,8.533c0,4.719,3.823,8.533,8.533,8.533s8.533-3.814,8.533-8.533     C187.736,379.281,183.913,375.467,179.203,375.467z" fill="#61d4d4"/>
			<path d="M281.603,366.933c-4.71,0-8.533,3.814-8.533,8.533v17.067c0,4.719,3.823,8.533,8.533,8.533     c4.71,0,8.533-3.814,8.533-8.533v-17.067C290.136,370.748,286.313,366.933,281.603,366.933z" fill="#61d4d4"/>
			<path d="M315.736,366.933c-4.71,0-8.533,3.814-8.533,8.533v17.067c0,4.719,3.823,8.533,8.533,8.533s8.533-3.814,8.533-8.533     v-17.067C324.269,370.748,320.446,366.933,315.736,366.933z" fill="#61d4d4"/>
			<path d="M196.269,307.2c-4.71,0-8.533,3.814-8.533,8.533s3.823,8.533,8.533,8.533s8.533-3.814,8.533-8.533     S200.98,307.2,196.269,307.2z" fill="#61d4d4"/>
			<path d="M298.669,298.667c-4.71,0-8.533,3.814-8.533,8.533v17.067c0,4.719,3.823,8.533,8.533,8.533     c4.71,0,8.533-3.814,8.533-8.533V307.2C307.203,302.481,303.38,298.667,298.669,298.667z" fill="#61d4d4"/>
			<path d="M332.803,298.667c-4.71,0-8.533,3.814-8.533,8.533v17.067c0,4.719,3.823,8.533,8.533,8.533s8.533-3.814,8.533-8.533     V307.2C341.336,302.481,337.513,298.667,332.803,298.667z" fill="#61d4d4"/>
			<path d="M196.269,443.733c-4.71,0-8.533,3.814-8.533,8.533c0,4.719,3.823,8.533,8.533,8.533s8.533-3.814,8.533-8.533     C204.803,447.548,200.98,443.733,196.269,443.733z" fill="#61d4d4"/>
			<path d="M298.669,435.2c-4.71,0-8.533,3.814-8.533,8.533V460.8c0,4.719,3.823,8.533,8.533,8.533c4.71,0,8.533-3.814,8.533-8.533     v-17.067C307.203,439.014,303.38,435.2,298.669,435.2z" fill="#61d4d4"/>
			<path d="M332.803,435.2c-4.71,0-8.533,3.814-8.533,8.533V460.8c0,4.719,3.823,8.533,8.533,8.533s8.533-3.814,8.533-8.533v-17.067     C341.336,439.014,337.513,435.2,332.803,435.2z" fill="#61d4d4"/>
		</g>
	</g>
</g>
<g>
</g>
<g>
</g>
<g>
</g>
<g>
</g>
<g>
</g>
<g>
</g>
<g>
</g>
<g>
</g>
<g>
</g>
<g>
</g>
<g>
</g>
<g>
</g>
<g>
</g>
<g>
</g>
<g>
</g>
</svg>
